<svg width="20" height="19" viewBox="0 0 20 19" fill="none" xmlns="http://www.w3.org/2000/svg">
<path d="M1.25 10.5014L16.075 10.5014L11.5375 15.9514C11.3253 16.2066 11.2232 16.5357 11.2537 16.8663C11.2842 17.1968 11.4447 17.5017 11.7 17.7139C11.9553 17.926 12.2844 18.0281 12.6149 17.9976C12.9454 17.9672 13.2503 17.8066 13.4625 17.5514L19.7125 10.0514C19.7545 9.99171 19.7922 9.92904 19.825 9.86386C19.825 9.80136 19.825 9.76386 19.9125 9.70136C19.9692 9.55804 19.9988 9.40548 20 9.25136C19.9988 9.09725 19.9692 8.94469 19.9125 8.80136C19.9125 8.73886 19.9125 8.70136 19.825 8.63886C19.7922 8.57369 19.7545 8.51102 19.7125 8.45136L13.4625 0.951365C13.345 0.810262 13.1978 0.696786 13.0314 0.61901C12.8651 0.541233 12.6836 0.501066 12.5 0.501364C12.2079 0.500794 11.9249 0.602512 11.7 0.788864C11.5734 0.8938 11.4688 1.02268 11.3921 1.16811C11.3154 1.31355 11.2682 1.47268 11.2531 1.6364C11.238 1.80012 11.2553 1.96521 11.3041 2.12222C11.3529 2.27922 11.4322 2.42505 11.5375 2.55136L16.075 8.00136L1.25 8.00136C0.918479 8.00136 0.600536 8.13306 0.366116 8.36748C0.131695 8.6019 0 8.91984 0 9.25136C0 9.58289 0.131695 9.90083 0.366116 10.1352C0.600536 10.3697 0.918479 10.5014 1.25 10.5014Z" fill="#F53838"/>
</svg>
